<svg width="539" height="400" viewBox="0 0 539 400" fill="none" xmlns="http://www.w3.org/2000/svg">
<path id="Vector" opacity="0.18" d="M155.045 38.33C145.49 47.6404 137.586 58.3195 129.222 68.565C97.6611 106.986 58.7694 139.985 31.1679 181.048C3.56639 222.112 -11.4538 275.426 10.6102 319.294C25.4869 348.919 55.1542 369.912 86.9877 382.99C114.224 394.335 143.685 400.13 173.45 399.998C235.654 399.307 293.325 370.617 354.209 358.271C381.193 352.85 408.867 350.532 435.55 343.892C454.458 339.203 472.964 332.223 488.63 321.259C532.083 290.984 547.448 233.17 534.623 183.61C521.797 134.049 484.914 92.4711 441.719 61.8431C368.555 9.80265 229.787 -34.5944 155.045 38.33Z" fill="#68E1FD"/>
</svg>
